<?xml version="1.0" standalone="no"?>
<!DOCTYPE svg PUBLIC "-//W3C//DTD SVG 20010904//EN"
 "http://www.w3.org/TR/2001/REC-SVG-20010904/DTD/svg10.dtd">
<svg version="1.0" xmlns="http://www.w3.org/2000/svg"
 width="162.000000pt" height="177.000000pt" viewBox="0 0 162.000000 177.000000"
 preserveAspectRatio="xMidYMid meet">

<g transform="translate(0.000000,177.000000) scale(0.100000,-0.100000)"
fill="#000000" stroke="none">
<path d="M817 1735 c-3 -11 -33 -137 -67 -280 -33 -143 -65 -276 -70 -296
l-10 -36 -317 103 c-174 57 -319 102 -320 100 -2 -2 107 -101 242 -220 135
-120 243 -221 241 -225 -3 -4 -117 -101 -255 -216 -138 -115 -249 -210 -248
-211 1 -1 147 41 325 93 177 53 324 94 327 91 2 -2 32 -137 65 -299 34 -162
63 -301 66 -309 3 -8 39 124 80 294 40 170 76 311 78 313 3 3 261 -79 606
-193 l45 -14 -25 23 c-14 14 -127 115 -252 225 l-228 201 74 63 c40 35 155
131 254 213 99 83 179 151 177 153 -2 2 -148 -40 -325 -93 -178 -52 -324 -94
-325 -93 -1 2 -30 140 -64 308 -73 357 -66 330 -74 305z"/>
</g>
</svg>
